<svg width="32" height="32" viewBox="0 0 32 32" fill="none" xmlns="http://www.w3.org/2000/svg">
<path fill-rule="evenodd" clip-rule="evenodd" d="M5.06496 26.3748C4.79122 26.6847 4.66457 27.0979 4.75628 27.5178L5.48974 30.8759C5.65477 31.6316 6.46428 32.1228 7.29782 31.9732L9.22583 31.6272C10.1146 31.4677 10.8903 30.9804 11.367 30.2819C12.8673 28.0842 10.7552 25.3217 7.95828 25.8236L5.15714 26.3264C5.12123 26.3328 5.08784 26.3488 5.06497 26.3748H5.06496ZM18.0437 24.0136L29.362 21.9823C29.8108 21.9018 30.2938 21.6747 30.6583 21.9255C30.9477 22.1246 31.1608 22.4168 31.2369 22.7654L31.9704 26.1234C32.1354 26.879 31.5936 27.6128 30.76 27.7624L19.3111 29.8171C16.5143 30.3191 14.4022 27.5567 15.9024 25.359C16.3792 24.6605 17.1548 24.1732 18.0437 24.0136V24.0136ZM16.1666 21.8098C15.9697 22.0982 15.6494 22.2995 15.2824 22.3653L7.18741 23.8182C7.10013 23.8338 7.00722 23.6638 7.05405 23.5952L21.9703 1.7432C22.5786 0.852091 23.5682 0.230345 24.7023 0.0268227C25.5357 -0.122775 26.3453 0.368481 26.5103 1.12408L27.2437 4.4822C27.3406 4.92582 27.2771 5.41288 27.0666 5.82288C27.041 5.8728 27.0118 5.92187 26.979 5.96983L16.1666 21.8098ZM13.9035 8.29816C14.8369 8.13064 15.6513 7.61891 16.1519 6.88547C17.7274 4.57748 15.5095 1.67666 12.5724 2.20378L1.24004 4.23763C0.406495 4.38723 -0.13544 5.12104 0.0295897 5.87662L0.763041 9.23475C0.928071 9.99034 1.73758 10.4816 2.57111 10.332L13.9035 8.29816Z" fill="url(#paint0_linear_107_3)"/>
<defs>
<linearGradient id="paint0_linear_107_3" x1="-9.40855" y1="0.00781454" x2="23.6261" y2="28.1525" gradientUnits="userSpaceOnUse">
<stop stop-color="#60A5FA"/>
<stop offset="1" stop-color="#3B82F6"/>
</linearGradient>
</defs>
</svg>
