<svg width="560" height="165" viewBox="0 0 560 165" fill="none" xmlns="http://www.w3.org/2000/svg">
<path d="M518.372 122.95C513.655 122.95 509.453 122.092 505.763 120.377C502.073 118.628 499.154 116.056 497.004 112.66C494.887 109.23 493.828 104.959 493.828 99.8474C493.828 95.5431 494.582 91.9281 496.09 89.0025C497.598 86.0769 499.651 83.723 502.25 81.9407C504.849 80.1585 507.8 78.8134 511.105 77.9054C514.442 76.9975 517.939 76.3586 521.596 75.9887C525.895 75.5179 529.36 75.0807 531.991 74.6772C534.622 74.24 536.531 73.6011 537.718 72.7604C538.905 71.9197 539.499 70.6755 539.499 69.0277V68.7251C539.499 65.5305 538.536 63.0588 536.611 61.3102C534.718 59.5616 532.023 58.6873 528.526 58.6873C524.837 58.6873 521.901 59.5448 519.719 61.2598C517.538 62.9412 516.094 65.0597 515.388 67.6154L496.427 66.0013C497.389 61.2934 499.282 57.2245 502.105 53.7945C504.929 50.3308 508.57 47.6742 513.03 45.8247C517.522 43.9416 522.719 43 528.622 43C532.729 43 536.659 43.5044 540.413 44.5132C544.199 45.5221 547.552 47.0857 550.471 49.2043C553.423 51.3228 555.749 54.0467 557.449 57.3758C559.15 60.6713 560 64.6225 560 69.2295V121.487H540.557V110.743H539.98C538.793 113.164 537.205 115.299 535.216 117.149C533.226 118.965 530.836 120.394 528.045 121.436C525.254 122.445 522.029 122.95 518.372 122.95ZM524.243 108.12C527.259 108.12 529.922 107.498 532.232 106.253C534.542 104.976 536.355 103.261 537.67 101.108C538.985 98.9563 539.643 96.5183 539.643 93.7945V85.5725C539.001 86.0097 538.119 86.4132 536.996 86.7831C535.905 87.1194 534.67 87.4388 533.291 87.7415C531.911 88.0105 530.531 88.2627 529.152 88.4981C527.772 88.6999 526.521 88.8848 525.398 89.053C522.992 89.4229 520.89 90.0113 519.094 90.8184C517.297 91.6255 515.901 92.7184 514.907 94.0971C513.912 95.4422 513.415 97.1236 513.415 99.1412C513.415 102.067 514.425 104.303 516.447 105.85C518.5 107.363 521.099 108.12 524.243 108.12Z" fill="black"/>
<path d="M373.683 121.487V44.0088H393.222V57.6784H394.089C395.629 53.1387 398.195 49.5574 401.789 46.9344C405.382 44.3115 409.681 43 414.686 43C419.755 43 424.071 44.3283 427.632 46.9849C431.193 49.6078 433.567 53.1723 434.754 57.6784H435.524C437.032 53.2396 439.759 49.6919 443.706 47.0353C447.684 44.3451 452.384 43 457.806 43C464.704 43 470.303 45.3035 474.602 49.9105C478.933 54.4838 481.099 60.9739 481.099 69.3808V121.487H460.646V73.6179C460.646 69.3136 459.555 66.0853 457.373 63.9332C455.191 61.781 452.464 60.7049 449.192 60.7049C445.47 60.7049 442.567 61.9491 440.481 64.4376C438.396 66.8924 437.353 70.1374 437.353 74.1728V121.487H417.477V73.1639C417.477 69.364 416.435 66.3375 414.349 64.0845C412.296 61.8314 409.585 60.7049 406.216 60.7049C403.938 60.7049 401.885 61.3102 400.056 62.5208C398.259 63.6978 396.832 65.3623 395.773 67.5145C394.714 69.633 394.185 72.1215 394.185 74.9798V121.487H373.683Z" fill="black"/>
<path d="M326.376 123C318.773 123 312.228 121.386 306.741 118.158C301.287 114.896 297.084 110.289 294.133 104.337C291.181 98.351 289.705 91.2724 289.705 83.1009C289.705 75.1311 291.181 68.1366 294.133 62.1173C297.084 56.0979 301.239 51.4069 306.597 48.0441C311.987 44.6814 318.307 43 325.558 43C330.435 43 334.975 43.8239 339.178 45.4716C343.413 47.0857 347.102 49.5237 350.247 52.7856C353.423 56.0475 355.893 60.1501 357.658 65.0933C359.422 70.0029 360.305 75.7533 360.305 82.3443V88.2459H297.886V74.9294H341.006C341.006 71.8356 340.365 69.095 339.081 66.7074C337.798 64.3199 336.018 62.4536 333.74 61.1085C331.494 59.7297 328.879 59.0404 325.895 59.0404C322.783 59.0404 320.024 59.797 317.618 61.3102C315.243 62.7898 313.383 64.7907 312.035 67.3127C310.688 69.8012 309.998 72.5754 309.966 75.6356V88.2963C309.966 92.1299 310.64 95.4422 311.987 98.2333C313.367 101.024 315.308 103.177 317.81 104.69C320.313 106.203 323.28 106.96 326.713 106.96C328.991 106.96 331.077 106.623 332.97 105.951C334.863 105.278 336.483 104.269 337.83 102.924C339.178 101.579 340.204 99.9315 340.91 97.9811L359.872 99.2926C358.909 104.068 356.936 108.237 353.952 111.802C351 115.333 347.183 118.09 342.498 120.074C337.846 122.025 332.472 123 326.376 123Z" fill="black"/>
<path d="M217 121.487V108.674L253.19 61.7135V61.1587H218.251V44.0086H277.878V57.9809L243.902 103.782V104.336H279.13V121.487H217Z" fill="black"/>
<path fill-rule="evenodd" clip-rule="evenodd" d="M23.742 135.995C22.4589 137.593 21.8652 139.723 22.2951 141.889L25.7332 159.204C26.5068 163.1 30.3013 165.633 34.2085 164.862L43.2461 163.078C47.4123 162.255 51.0481 159.743 53.2829 156.141C60.3154 144.809 50.4149 130.565 37.3044 133.153L24.1741 135.745C24.0058 135.779 23.8492 135.861 23.742 135.995H23.742ZM84.5796 123.82L137.634 113.346C139.738 112.931 142.002 111.76 143.711 113.053C145.067 114.08 146.066 115.587 146.423 117.384L149.861 134.699C150.635 138.595 148.095 142.378 144.187 143.15L90.521 153.745C77.4109 156.333 67.5102 142.089 74.5425 130.757C76.7776 127.156 80.4131 124.643 84.5796 123.82V123.82ZM75.781 112.457C74.8579 113.944 73.3565 114.982 71.6361 115.321L33.691 122.813C33.2819 122.893 32.8463 122.016 33.0659 121.663L102.986 8.98837C105.837 4.39359 110.476 1.18772 115.792 0.138304C119.699 -0.633057 123.494 1.89998 124.267 5.79602L127.705 23.1113C128.159 25.3988 127.861 27.9102 126.875 30.0242C126.755 30.2816 126.618 30.5346 126.464 30.7819L75.781 112.457ZM65.1726 42.7874C69.5479 41.9236 73.3656 39.285 75.7122 35.5032C83.0972 23.6026 72.7008 8.64527 58.9332 11.3633L5.81267 21.8503C1.90545 22.6217 -0.634877 26.4053 0.138702 30.3013L3.57675 47.6167C4.35033 51.5127 8.14488 54.0458 12.0521 53.2743L65.1726 42.7874Z" fill="url(#paint0_linear_108_15)"/>
<defs>
<linearGradient id="paint0_linear_108_15" x1="-44.1026" y1="0.0402937" x2="122.94" y2="129.419" gradientUnits="userSpaceOnUse">
<stop stop-color="#60A5FA"/>
<stop offset="1" stop-color="#3B82F6"/>
</linearGradient>
</defs>
</svg>
